<?xml version="1.0" encoding="utf-8"?><svg viewBox="0 0 10 16" xmlns="http://www.w3.org/2000/svg" xmlns:xlink="http://www.w3.org/1999/xlink"><style>:root>svg{display:none}:root>svg:target{display:block}</style><svg fill="none" viewBox="0 0 10 16" id="carousel-arrow-left-grey" xmlns="http://www.w3.org/2000/svg"><path d="M.272 8.624l7.574 7.12c.176.165.41.256.659.256.25 0 .483-.09.658-.256l.558-.524a.84.84 0 000-1.238l-6.36-5.979 6.367-5.985a.844.844 0 000-1.238L9.17.256A.955.955 0 008.512 0c-.25 0-.483.09-.659.256L.272 7.382a.844.844 0 000 1.242z" fill="#989898"/></svg><svg fill="none" viewBox="0 0 10 16" id="carousel-arrow-left-orng" xmlns="http://www.w3.org/2000/svg"><path d="M.272 8.624l7.574 7.12c.176.165.41.256.659.256.25 0 .483-.09.658-.256l.558-.524a.84.84 0 000-1.238l-6.36-5.979 6.367-5.985a.844.844 0 000-1.238L9.17.256A.955.955 0 008.512 0c-.25 0-.483.09-.659.256L.272 7.382a.844.844 0 000 1.242z" fill="#FB9A00"/></svg><svg fill="none" viewBox="0 0 10 16" id="carousel-arrow-right-gray" xmlns="http://www.w3.org/2000/svg"><path d="M9.728 7.376L2.154.256A.955.955 0 001.495 0c-.25 0-.483.09-.658.256L.279.78a.84.84 0 000 1.238l6.36 5.979-6.367 5.985a.844.844 0 000 1.238l.558.524c.175.165.409.256.658.256.25 0 .483-.09.659-.256l7.581-7.126a.844.844 0 000-1.242z" fill="#989898"/></svg><svg fill="none" viewBox="0 0 10 16" id="carousel-arrow-right-orng" xmlns="http://www.w3.org/2000/svg"><path d="M9.728 7.376L2.154.256A.955.955 0 001.495 0c-.25 0-.483.09-.658.256L.279.78a.84.84 0 000 1.238l6.36 5.979-6.367 5.985a.844.844 0 000 1.238l.558.524c.175.165.409.256.658.256.25 0 .483-.09.659-.256l7.581-7.126a.844.844 0 000-1.242z" fill="#FB9A00"/></svg></svg>